<svg xmlns="http://www.w3.org/2000/svg" viewBox="0 0 2560 1440"><g transform="
          rotate(0 1280 720) 
          translate(-0 -0)
          scale(1)
        "><rect width="2560" height="1440" fill="rgb(135, 74, 121)"></rect><g transform="translate(0, 0)"><path fill="rgb(107, 56, 98)" fill-opacity="1" d="M0,470.591L71.111,466.767C142.222,462.943,284.444,455.294,426.667,454.108C568.889,452.923,711.111,458.2,853.333,458.793C995.556,459.387,1137.778,455.296,1280,404.244C1422.222,353.192,1564.444,255.178,1706.667,246.9C1848.889,238.622,1991.111,320.081,2133.333,295.115C2275.556,270.149,2417.778,138.758,2488.889,73.063L2560,7.368L2560,1440L2488.889,1440C2417.778,1440,2275.556,1440,2133.333,1440C1991.111,1440,1848.889,1440,1706.667,1440C1564.444,1440,1422.222,1440,1280,1440C1137.778,1440,995.556,1440,853.333,1440C711.111,1440,568.889,1440,426.667,1440C284.444,1440,142.222,1440,71.111,1440L0,1440Z"></path></g><g transform="translate(0, 480)"><path fill="rgb(79, 37, 74)" fill-opacity="1" d="M0,356.831L71.111,327.602C142.222,298.374,284.444,239.916,426.667,185.807C568.889,131.699,711.111,81.94,853.333,107.625C995.556,133.31,1137.778,234.438,1280,252.673C1422.222,270.908,1564.444,206.249,1706.667,173.885C1848.889,141.522,1991.111,141.454,2133.333,188.366C2275.556,235.278,2417.778,329.17,2488.889,376.116L2560,423.062L2560,960L2488.889,960C2417.778,960,2275.556,960,2133.333,960C1991.111,960,1848.889,960,1706.667,960C1564.444,960,1422.222,960,1280,960C1137.778,960,995.556,960,853.333,960C711.111,960,568.889,960,426.667,960C284.444,960,142.222,960,71.111,960L0,960Z"></path></g><g transform="translate(0, 960)"><path fill="rgb(51, 19, 51)" fill-opacity="1" d="M0,443.946L71.111,383.047C142.222,322.148,284.444,200.35,426.667,150.164C568.889,99.978,711.111,121.403,853.333,168.363C995.556,215.324,1137.778,287.821,1280,339.107C1422.222,390.392,1564.444,420.467,1706.667,400.686C1848.889,380.905,1991.111,311.269,2133.333,240.417C2275.556,169.565,2417.778,97.497,2488.889,61.463L2560,25.429L2560,480L2488.889,480C2417.778,480,2275.556,480,2133.333,480C1991.111,480,1848.889,480,1706.667,480C1564.444,480,1422.222,480,1280,480C1137.778,480,995.556,480,853.333,480C711.111,480,568.889,480,426.667,480C284.444,480,142.222,480,71.111,480L0,480Z"></path></g></g></svg>