<svg xmlns="http://www.w3.org/2000/svg" width="430" height="430" style="width:100%;height:100%;transform:translate3d(0,0,0);content-visibility:visible" viewBox="0 0 430 430"><defs><clipPath id="a"><path d="M0 0h430v430H0z"/></clipPath><clipPath id="d"><path d="M0 0h430v430H0z"/></clipPath><clipPath id="c"><path d="M0 0h430v430H0z"/></clipPath><clipPath id="b"><path d="M0 0h430v430H0z"/></clipPath></defs><g clip-path="url(#a)"><g clip-path="url(#b)" style="display:none"><g style="display:none"><path class="primary"/><path class="primary" style="mix-blend-mode:multiply"/></g><path class="primary" style="display:none"/></g><g fill="#4BB3FD" clip-path="url(#c)" style="display:block"><g style="display:block"><path d="m325.934 207.763-1.251 15.817A110.101 110.101 0 0 1 214.983 325h-.01a109.708 109.708 0 0 1-77.934-32.4l21.448-21.447c1.837-1.837.63-4.981-1.964-5.118l-99.944-5.26a3 3 0 0 0-3.154 3.154l5.26 99.944c.137 2.594 3.281 3.801 5.118 1.964l27.274-27.275A174.723 174.723 0 0 0 215.027 390a175.096 175.096 0 0 0 174.454-161.296l1.619-20.468a3 3 0 0 0-2.991-3.236h-59.184a3 3 0 0 0-2.991 2.763z" class="primary"/><path fill-opacity=".5" d="m103.669-89.737-1.251 15.817A110.101 110.101 0 0 1-7.282 27.5h-.01A109.708 109.708 0 0 1-85.226-4.9l21.448-21.447c1.837-1.837.63-4.981-1.964-5.118l-99.944-5.26a3 3 0 0 0-3.154 3.154l5.26 99.944c.137 2.594 3.281 3.801 5.118 1.964l27.274-27.275A174.723 174.723 0 0 0-7.238 92.5 175.096 175.096 0 0 0 167.216-68.796l1.619-20.468a3 3 0 0 0-2.991-3.236H106.66a3 3 0 0 0-2.991 2.763z" class="primary" style="mix-blend-mode:multiply" transform="translate(222.265 297.5)"/></g><path d="m-103.669 89.737 1.251-15.817A110.101 110.101 0 0 1 7.282-27.5h.01A109.708 109.708 0 0 1 85.226 4.9L63.778 26.347c-1.837 1.837-.63 4.982 1.964 5.118l99.944 5.26a3 3 0 0 0 3.154-3.154l-5.26-99.944c-.137-2.594-3.281-3.801-5.118-1.964l-27.274 27.275A174.723 174.723 0 0 0 7.238-92.5 175.096 175.096 0 0 0-167.216 68.796l-1.619 20.468a3 3 0 0 0 2.991 3.236h59.184a3 3 0 0 0 2.991-2.763z" class="primary" style="display:block" transform="translate(207.985 132.5)"/></g><g clip-path="url(#d)" style="display:none"><g style="display:none"><path class="primary"/><path class="primary" style="mix-blend-mode:multiply"/></g><path class="primary" style="display:none"/></g></g></svg>